<svg version="1.2" baseProfile="tiny-ps" xmlns="http://www.w3.org/2000/svg" viewBox="0 0 1510 1510" width="1510" height="1510">
	<title>download (2)-svg</title>
	<defs>
		<clipPath clipPathUnits="userSpaceOnUse" id="cp1">
			<path d="M-4322.14 1509.87L1509.81 1509.87L1509.81 0.6L-4322.14 0.6L-4322.14 1509.87Z" />
		</clipPath>
	</defs>
	<style>
		tspan { white-space:pre }
		.shp0 { fill: #ffffff } 
	</style>
	<g id="Allianz">
		<g id="z">
		</g>
		<g id="Eagle">
			<g id="Clip-Path" clip-path="url(#cp1)">
				<g id="Layer">
					<path id="path37647" fill-rule="evenodd" class="shp0" d="M754.93 1509.87C327.38 1509.87 0.05 1186.64 0.05 754.57C0.05 323.82 327.38 0.6 754.93 0.6C1189.15 0.6 1509.81 323.82 1509.81 754.57C1509.81 1186.64 1189.15 1509.87 754.93 1509.87ZM754.93 118.14C394.19 118.14 126.97 386.6 126.97 754.57C126.97 1122.53 394.19 1391 754.93 1391C1115.66 1391 1382.88 1122.53 1382.88 754.57C1382.88 386.6 1115.66 118.14 754.93 118.14ZM354.1 1149.91L354.1 556.22C354.1 496.12 380.83 472.08 440.95 472.08L547.83 472.08L547.83 1149.91L354.1 1149.91ZM654.72 1149.91L654.72 417.32C654.72 378.59 641.36 365.9 607.96 365.9L587.92 365.9L587.92 279.08L768.29 279.08C828.41 279.08 855.13 299.78 855.13 363.23L855.13 1149.91L654.72 1149.91ZM962.02 472.08L1068.9 472.08C1129.03 472.08 1155.75 496.12 1155.75 556.22L1155.75 1149.91L962.02 1149.91L962.02 472.08Z" />
				</g>
			</g>
		</g>
	</g>
</svg>