<?xml version="1.0" encoding="UTF-8"?>
<svg xmlns="http://www.w3.org/2000/svg" viewBox="0 0 24 24" width="32" height="32"><path d="M12 0C5.4 0 0 5.4 0 12s5.4 12 12 12 12-5.4 12-12S18.6 0 12 0zm.5 23v-1.5c0-.3-.2-.5-.5-.5s-.5.2-.5.5V23C5.8 22.7 1.3 18.2 1 12.5h1.5c.3 0 .5-.2.5-.5s-.2-.5-.5-.5H1C1.3 5.8 5.8 1.3 11.5 1v1.5c0 .3.2.5.5.5s.5-.2.5-.5V1c5.7.3 10.2 4.8 10.5 10.5h-1.5c-.3 0-.5.2-.5.5s.2.5.5.5H23c-.3 5.7-4.8 10.2-10.5 10.5zm4.9-16.4c-.2-.2-.4-.2-.6-.1l-6.6 3.6c-.1 0-.2.1-.2.2l-3.6 6.6c-.1.2 0 .5.2.7.1.1.3.1.5 0l6.6-3.6c.1 0 .2-.1.2-.2l3.6-6.6c.1-.2.1-.5-.1-.6zm-6.8 4.7l2.1 2.1-4.5 2.5 2.4-4.6zm2.8 1.4l-2.1-2.1 4.5-2.5-2.4 4.6z" style="fill: #ffffff;"/></svg>
